<?xml version="1.0" encoding="utf-8"?>
<!-- Generated by IcoMoon.io -->
<!DOCTYPE svg PUBLIC "-//W3C//DTD SVG 1.1//EN" "http://www.w3.org/Graphics/SVG/1.1/DTD/svg11.dtd">
<svg version="1.1" xmlns="http://www.w3.org/2000/svg" xmlns:xlink="http://www.w3.org/1999/xlink" width="32" height="32" viewBox="0 0 32 32">
<path d="M16 30.775c-8.435 0-15.273-6.861-15.273-15.327 0-8.464 6.838-15.327 15.273-15.327s15.273 6.863 15.273 15.327c0 8.465-6.838 15.327-15.273 15.327zM16 2.996c-6.854 0-12.409 5.575-12.409 12.452s5.555 12.452 12.409 12.452c6.854 0 12.409-5.575 12.409-12.452s-5.555-12.452-12.409-12.452zM21.356 17.843c0.228-0.253 0.371-0.588 0.371-0.957 0-0.794-0.64-1.437-1.431-1.437-0.422 0-0.799 0.188-1.060 0.48l-0.004-0.004-1.799 2.006v-8.707c0-0.794-0.64-1.437-1.431-1.437s-1.431 0.643-1.431 1.437v8.707l-1.799-2.006-0.004 0.004c-0.262-0.292-0.639-0.48-1.060-0.48-0.791 0-1.431 0.643-1.431 1.437 0 0.369 0.143 0.704 0.371 0.957l-0.004 0.004 4.295 4.79 0.004-0.004c0.262 0.292 0.639 0.479 1.060 0.479s0.799-0.186 1.060-0.479l0.004 0.004 4.295-4.79z"></path>
</svg>
