<?xml version="1.0" encoding="utf-8"?>
<!-- Generated by IcoMoon.io -->
<!DOCTYPE svg PUBLIC "-//W3C//DTD SVG 1.1//EN" "http://www.w3.org/Graphics/SVG/1.1/DTD/svg11.dtd">
<svg version="1.1" xmlns="http://www.w3.org/2000/svg" xmlns:xlink="http://www.w3.org/1999/xlink" width="32" height="32" viewBox="0 0 32 32">
<path d="M31.866 8.838h0.003l-4.5 10.042c-0.222 0.493-0.702 0.845-1.268 0.883l-12.959 0.864 0.749 2.15h14.111c1.657 0 3 1.35 3 3.008 0 1.664-1.343 3.014-3 3.014s-3-1.35-3-3.014h-14c0 1.664-1.343 3.014-3 3.014s-3-1.35-3-3.014c0-1.658 1.343-3.008 3-3.008h2.711l-5.775-16.563h-3.436c-0.829 0-1.5-0.678-1.5-1.51s0.671-1.504 1.5-1.504h4.5c0.655 0 1.205 0.422 1.41 1.011h0.006l0.874 2.502h22.211c0.829 0 1.5 0.672 1.5 1.504 0 0.224-0.050 0.429-0.134 0.621zM9.339 9.728l2.773 7.949 12.89-0.858 3.178-7.091z"></path>
</svg>
