<?xml version="1.0" encoding="utf-8"?>
<!-- Generated by IcoMoon.io -->
<!DOCTYPE svg PUBLIC "-//W3C//DTD SVG 1.1//EN" "http://www.w3.org/Graphics/SVG/1.1/DTD/svg11.dtd">
<svg version="1.1" xmlns="http://www.w3.org/2000/svg" xmlns:xlink="http://www.w3.org/1999/xlink" width="32" height="32" viewBox="0 0 32 32">
<path d="M16.832 5.509l8.278 19.155-14.609-8.49 4.61-10.664c0.288-0.283 0.573-0.401 0.856-0.354 0.288-0.052 0.576 0.066 0.864 0.354zM10.345 16.556l-3.512 8.108 8.738-5.070zM15.996 32c-4.392 0-8.196-1.577-11.307-4.688s-4.689-6.919-4.689-11.315c0-4.392 1.577-8.197 4.689-11.308s6.916-4.689 11.307-4.689c4.397 0 8.204 1.578 11.315 4.689s4.689 6.916 4.689 11.308c0 4.396-1.577 8.203-4.689 11.314s-6.918 4.689-11.315 4.689zM15.996 1.7c-3.98 0-7.286 1.371-10.106 4.191s-4.191 6.126-4.191 10.106c0 3.984 1.371 7.293 4.191 10.113s6.126 4.191 10.106 4.191c3.985 0 7.293-1.371 10.113-4.191s4.191-6.128 4.191-10.113c0-3.98-1.371-7.286-4.191-10.106h-0c-2.82-2.82-6.128-4.191-10.113-4.191z"></path>
</svg>
