<?xml version="1.0" encoding="utf-8"?>
<!-- Generated by IcoMoon.io -->
<!DOCTYPE svg PUBLIC "-//W3C//DTD SVG 1.1//EN" "http://www.w3.org/Graphics/SVG/1.1/DTD/svg11.dtd">
<svg version="1.1" xmlns="http://www.w3.org/2000/svg" xmlns:xlink="http://www.w3.org/1999/xlink" width="32" height="32" viewBox="0 0 32 32">
<path d="M30.499 29.964h-28.998c-0.832 0-1.501-0.669-1.501-1.495v-24.937c0-0.826 0.669-1.495 1.501-1.495h28.998c0.832 0 1.501 0.669 1.501 1.495v24.937c0 0.826-0.669 1.495-1.501 1.495zM3.002 3.532c-0.832 0-1.501 0.669-1.501 1.495s0.669 1.495 1.501 1.495c0.826 0 1.495-0.669 1.495-1.495s-0.669-1.495-1.495-1.495zM7.5 3.532c-0.826 0-1.501 0.669-1.501 1.495s0.675 1.495 1.501 1.495c0.826 0 1.501-0.669 1.501-1.495s-0.675-1.495-1.501-1.495zM12.003 3.532c-0.832 0-1.501 0.669-1.501 1.495s0.669 1.495 1.501 1.495c0.826 0 1.495-0.669 1.495-1.495s-0.669-1.495-1.495-1.495zM30.499 8.023h-28.998v20.445h28.998z"></path>
</svg>
